<svg xmlns="http://www.w3.org/2000/svg" viewBox="0 0 512 512">
  <rect width="512" height="512" rx="96" fill="#2563EB"/>
  <g transform="translate(256,280)" fill="none" stroke="#fff" stroke-width="24" stroke-linecap="round" stroke-linejoin="round">
    <!-- Car body -->
    <path d="M-150,0 L-170,0 C-180,0 -185,-5 -185,-15 L-185,-30 C-185,-40 -180,-45 -170,-45 L-120,-45 L-90,-90 C-85,-98 -75,-105 -65,-105 L65,-105 C75,-105 85,-98 90,-90 L120,-45 L170,-45 C180,-45 185,-40 185,-30 L185,-15 C185,-5 180,0 170,0 L150,0" fill="#2563EB"/>
    <!-- Roof line -->
    <path d="M-90,-90 C-85,-98 -75,-105 -65,-105 L65,-105 C75,-105 85,-98 90,-90 L120,-45 L-120,-45 Z" fill="#1d4ed8" stroke="#fff" stroke-width="20"/>
    <!-- Body lower -->
    <path d="M-185,-45 L185,-45 L185,-15 C185,-5 180,0 170,0 L-170,0 C-180,0 -185,-5 -185,-15 Z" fill="#1d4ed8" stroke="#fff" stroke-width="20"/>
    <!-- Windows -->
    <path d="M-80,-88 L-108,-50 L-10,-50 L-10,-88 Z" fill="#93c5fd" stroke="none"/>
    <path d="M10,-88 L10,-50 L108,-50 L80,-88 Z" fill="#93c5fd" stroke="none"/>
    <!-- Headlights -->
    <rect x="155" y="-38" width="26" height="14" rx="4" fill="#fbbf24" stroke="none"/>
    <rect x="-181" y="-38" width="26" height="14" rx="4" fill="#fbbf24" stroke="none"/>
  </g>
  <!-- Wheels -->
  <circle cx="160" cy="310" r="38" fill="#1e293b" stroke="#fff" stroke-width="16"/>
  <circle cx="160" cy="310" r="14" fill="#94a3b8"/>
  <circle cx="352" cy="310" r="38" fill="#1e293b" stroke="#fff" stroke-width="16"/>
  <circle cx="352" cy="310" r="14" fill="#94a3b8"/>
  <!-- Text: AV -->
  <text x="256" y="190" text-anchor="middle" font-family="Inter,system-ui,sans-serif" font-weight="700" font-size="120" fill="#fff" letter-spacing="-4">AV</text>
</svg>
